<svg width="25" height="25" viewBox="0 0 25 25" fill="none" xmlns="http://www.w3.org/2000/svg">
<g clip-path="url(#clip0_3868_433)">
<path d="M21.6462 8.50859C21.5069 8.6166 19.0491 10.0015 19.0491 13.081C19.0491 16.643 22.1766 17.9031 22.2702 17.9343C22.2558 18.0111 21.7734 19.6601 20.6212 21.3403C19.5939 22.8188 18.521 24.295 16.8888 24.295C15.2567 24.295 14.8366 23.3469 12.9524 23.3469C11.1162 23.3469 10.4634 24.3262 8.9704 24.3262C7.47744 24.3262 6.43573 22.958 5.238 21.2779C3.85066 19.3049 2.72974 16.2398 2.72974 13.3307C2.72974 8.66461 5.76366 6.18996 8.74958 6.18996C10.3361 6.18996 11.6587 7.23166 12.6548 7.23166C13.6029 7.23166 15.0815 6.12755 16.8864 6.12755C17.5705 6.12755 20.0284 6.18996 21.6462 8.50859ZM16.0296 4.15215C16.776 3.26647 17.3041 2.03754 17.3041 0.80862C17.3041 0.638203 17.2897 0.465386 17.2585 0.326172C16.044 0.371776 14.599 1.13505 13.7277 2.14555C13.0436 2.92323 12.4052 4.15215 12.4052 5.39788C12.4052 5.5851 12.4364 5.77232 12.4508 5.83232C12.5276 5.84672 12.6524 5.86353 12.7772 5.86353C13.8669 5.86353 15.2375 5.13385 16.0296 4.15215Z" fill="black"/>
</g>
<defs>
<clipPath id="clip0_3868_433">
<rect width="24" height="24" fill="white" transform="translate(0.5 0.5)"/>
</clipPath>
</defs>
</svg>
