<svg width="24" height="24" viewBox="0 0 24 24" fill="none" xmlns="http://www.w3.org/2000/svg">
<path d="M12.2397 9.81862V14.466H18.6981C18.4145 15.9606 17.5634 17.2262 16.2871 18.0771L20.1817 21.099C22.4508 19.0045 23.76 15.928 23.76 12.2734C23.76 11.4224 23.6836 10.6042 23.5418 9.81875L12.2397 9.81862Z" fill="#4285F4"/>
<path d="M5.51366 14.2836L4.63528 14.956L1.52606 17.3779C3.50065 21.2943 7.54772 23.9999 12.2387 23.9999C15.4787 23.9999 18.1951 22.9308 20.1806 21.098L16.286 18.0761C15.2169 18.7961 13.8532 19.2325 12.2387 19.2325C9.11865 19.2325 6.46775 17.127 5.51857 14.2905L5.51366 14.2836Z" fill="#34A853"/>
<path d="M1.5269 6.62077C0.708738 8.2353 0.239685 10.0572 0.239685 11.999C0.239685 13.9409 0.708738 15.7628 1.5269 17.3773C1.5269 17.3882 5.51979 14.279 5.51979 14.279C5.27978 13.559 5.13792 12.7954 5.13792 11.9989C5.13792 11.2024 5.27978 10.4388 5.51979 9.7188L1.5269 6.62077Z" fill="#FBBC05"/>
<path d="M12.239 4.77821C14.0063 4.77821 15.5772 5.38913 16.8318 6.56736L20.2682 3.13094C18.1845 1.18909 15.4791 -0.000106812 12.239 -0.000106812C7.54797 -0.000106812 3.50065 2.69451 1.52606 6.62192L5.51883 9.72019C6.46789 6.88372 9.11889 4.77821 12.239 4.77821Z" fill="#EA4335"/>
</svg>
