<svg width="28" height="23" viewBox="0 0 28 23" fill="none" xmlns="http://www.w3.org/2000/svg">
<path fill-rule="evenodd" clip-rule="evenodd" d="M5.5552 0H22.4448C23.0594 0 23.5886 -1.312e-07 24.0268 0.0301874C24.4888 0.0632499 24.9508 0.133688 25.4072 0.32775C25.9169 0.544477 26.3801 0.862195 26.7702 1.26276C27.1603 1.66332 27.4697 2.13887 27.6808 2.66225C27.8698 3.13088 27.9384 3.60525 27.9706 4.07962C28 4.52956 28 5.07294 28 5.704V17.296C28 17.9271 28 18.4704 27.9706 18.9204C27.9384 19.3948 27.8698 19.8691 27.6808 20.3378C27.4697 20.8611 27.1603 21.3367 26.7702 21.7372C26.3801 22.1378 25.9169 22.4555 25.4072 22.6722C24.9661 22.8487 24.4997 22.9493 24.0268 22.9698C23.5886 23 23.0594 23 22.4448 23H5.5552C4.9406 23 4.4114 23 3.9732 22.9698C3.50025 22.9493 3.03385 22.8488 2.5928 22.6722C2.08307 22.4555 1.61993 22.1378 1.22981 21.7372C0.839703 21.3367 0.530273 20.8611 0.3192 20.3378C0.147242 19.8849 0.0493237 19.406 0.0293999 18.9204C-1.27777e-07 18.4719 0 17.9271 0 17.296V5.704C0 5.07294 -1.27777e-07 4.52956 0.0293999 4.07962C0.0615999 3.60525 0.1302 3.13088 0.3192 2.66225C0.530273 2.13887 0.839703 1.66332 1.22981 1.26276C1.61993 0.862195 2.08307 0.544477 2.5928 0.32775C3.03383 0.151186 3.50025 0.0506448 3.9732 0.0301874C4.41 -1.312e-07 4.9406 0 5.5552 0ZM3.2452 3.27462C3.48967 2.98819 3.83486 2.81307 4.20497 2.78774C4.57508 2.7624 4.93986 2.88892 5.2192 3.1395L13.0788 10.1991C13.3339 10.428 13.6612 10.5541 14 10.5541C14.3388 10.5541 14.6661 10.428 14.9212 10.1991L22.7808 3.1395C22.9188 3.01274 23.0799 2.91533 23.2548 2.85293C23.4297 2.79053 23.6149 2.76437 23.7997 2.77596C23.9845 2.78755 24.1652 2.83667 24.3314 2.92046C24.4976 3.00426 24.646 3.12107 24.7679 3.26413C24.8898 3.4072 24.9829 3.57368 25.0417 3.75393C25.1006 3.93418 25.124 4.12463 25.1107 4.31424C25.0974 4.50386 25.0475 4.68888 24.9641 4.85859C24.8807 5.0283 24.7653 5.17933 24.6246 5.30294L16.7664 12.3625C16.0007 13.0507 15.0176 13.4301 14 13.4301C12.9824 13.4301 11.9993 13.0507 11.2336 12.3625L3.3768 5.30438C3.09721 5.05351 2.92613 4.69888 2.90119 4.3185C2.87625 3.93812 2.99949 3.56314 3.2438 3.27606L3.2452 3.27462Z" fill="black"/>
</svg>
