<svg width="22" height="29" viewBox="0 0 22 29" fill="none" xmlns="http://www.w3.org/2000/svg">
<path fill-rule="evenodd" clip-rule="evenodd" d="M5.5 4.35V8.7058C4.81525 8.71595 4.20337 8.7435 3.674 8.8189C2.77338 8.9465 1.9085 9.23505 1.20863 9.97455C0.507375 10.7141 0.23375 11.6247 0.11275 12.5744C-3.07336e-07 13.4618 0 14.5696 0 15.8543V21.8457C0 23.1304 -3.07336e-07 24.2382 0.11275 25.1256C0.23375 26.0753 0.507375 26.9874 1.20863 27.7255C1.90988 28.465 2.77338 28.7535 3.674 28.8811C4.5155 29 5.566 29 6.78425 29H15.2157C16.434 29 17.4845 29 18.326 28.8811C19.2266 28.7535 20.0915 28.465 20.7914 27.7255C21.4926 26.986 21.7662 26.0753 21.8872 25.1256C22 24.2382 22 23.1304 22 21.8457V15.8543C22 14.5696 22 13.4618 21.8872 12.5744C21.7662 11.6247 21.4926 10.7126 20.7914 9.97455C20.0901 9.23505 19.2266 8.9465 18.326 8.8189C17.7966 8.7435 17.1847 8.7174 16.5 8.7058V4.35C16.5 3.19631 16.0654 2.08987 15.2918 1.27409C14.5182 0.458302 13.469 0 12.375 0H9.625C8.53098 0 7.48177 0.458302 6.70818 1.27409C5.9346 2.08987 5.5 3.19631 5.5 4.35ZM9.625 2.9C9.26033 2.9 8.91059 3.05277 8.65273 3.3247C8.39487 3.59662 8.25 3.96544 8.25 4.35V8.7H13.75V4.35C13.75 3.96544 13.6051 3.59662 13.3473 3.3247C13.0894 3.05277 12.7397 2.9 12.375 2.9H9.625ZM11 15.95C10.2707 15.95 9.57118 16.2555 9.05546 16.7994C8.53973 17.3432 8.25 18.0809 8.25 18.85C8.25 19.6191 8.53973 20.3568 9.05546 20.9006C9.57118 21.4445 10.2707 21.75 11 21.75C11.7293 21.75 12.4288 21.4445 12.9445 20.9006C13.4603 20.3568 13.75 19.6191 13.75 18.85C13.75 18.0809 13.4603 17.3432 12.9445 16.7994C12.4288 16.2555 11.7293 15.95 11 15.95Z" fill="black"/>
</svg>
