<svg width="20" height="20" viewBox="0 0 20 20" fill="none" xmlns="http://www.w3.org/2000/svg">
<path d="M10 9.06881C8.82191 9.06881 7.81286 8.62436 6.97286 7.73548C6.13286 6.84659 5.71333 5.77932 5.71429 4.53367C5.71524 3.28802 6.13476 2.21974 6.97286 1.32884C7.81095 0.437935 8.82 -0.00499653 10 4.25117e-05C11.18 0.00508155 12.189 0.448517 13.0271 1.33035C13.8652 2.21218 14.2848 3.28046 14.2857 4.53518C14.2867 5.7899 13.8671 6.85717 13.0271 7.73699C12.1871 8.6168 11.1781 9.05974 10 9.06881ZM0 20V17.5117C0 16.8879 0.171429 16.3044 0.514286 15.7612C0.858095 15.2169 1.32 14.7947 1.9 14.4943C3.24857 13.81 4.59809 13.2971 5.94857 12.9554C7.29809 12.6128 8.64857 12.4414 10 12.4414C11.3514 12.4414 12.7024 12.6128 14.0529 12.9554C15.4033 13.2981 16.7519 13.811 18.0986 14.4943C18.6795 14.7947 19.1414 15.2169 19.4843 15.7612C19.8281 16.3044 20 16.8879 20 17.5117V20H0Z" fill="black"/>
</svg>
